:SAMPLES-PER-SECOND 24
:FULLY-SPECIFIED
:DEGREES
125
root  0.133521 40.1016 -7.02566 -167.244 33.4217 -175.813
RightUpLeg  -19.3892 -1.47893 -5.59057
RightLeg  6.39536 8.21955 -0.446335
RightFoot  -0.530276 -1.24456 13.0123
RightToes  -2.09809e-008 3.77894e-005 6.81332e-007
Spine  2.1027 -2.13236 -10.4513
Spine1  4.3092 -4.82104 13.0727
HEad  -32.3365 25.1968 -12.357
LeftShoulder1  6.33384 -12.2358 -34.233
LeftArm  9.21192 13.07 -33.5126
LeftForeArm  165.41 -68.9066 -154.243
LeftHand  -0.164364 -2.32825 2.67302
RightShoulder  3.74185 6.44081 31.7385
RightArm  6.65081 -29.2376 39.4951
RightForeArm  155.079 73.5765 145.002
RightHand  -0.386487 9.6555 -3.37723
LeftUpLeg  -13.0776 6.28641 6.84932
LeftLeg  19.2848 14.1361 5.71939
LeftFoot  -7.82827 0.421116 -12.1539
LeftToes  1.24773e-006 1.46318e-008 1.32523e-009
126
root  -0.170007 40.1959 -6.64695 -167.36 33.1245 -175.382
RightUpLeg  -17.4915 -0.304143 -6.25082
RightLeg  9.39082 4.24311 -0.57032
RightFoot  -2.93302 -0.846135 11.1886
RightToes  -2.09809e-008 3.77894e-005 6.81332e-007
Spine  1.80694 -2.00814 -9.99571
Spine1  4.15524 -4.73721 13.0987
HEad  -29.2347 24.7989 -11.1499
LeftShoulder1  6.32602 -12.2134 -34.2406
LeftArm  10.1039 14.1125 -32.8001
LeftForeArm  165.797 -68.8122 -154.407
LeftHand  -0.126803 -2.51003 2.0704
RightShoulder  3.67148 6.33923 31.4093
RightArm  8.2162 -29.0808 38.229
RightForeArm  155.559 73.6426 144.939
RightHand  -0.397301 10.1851 -3.35962
LeftUpLeg  -13.4687 5.87103 7.17285
LeftLeg  19.0128 14.3132 5.71632
LeftFoot  -7.11816 0.486447 -12.0083
LeftToes  1.24773e-006 1.46318e-008 1.32523e-009
127
root  -0.393535 40.1878 -6.22872 -168.067 32.9901 -175.319
RightUpLeg  -15.4987 1.62903 -7.4651
RightLeg  14.468 -3.82865 -1.64272
RightFoot  -3.92768 -0.635063 9.36824
RightToes  -2.09809e-008 3.77894e-005 6.81332e-007
Spine  1.23868 -1.6304 -9.18656
Spine1  4.73926 -4.35856 12.5177
HEad  -26.4939 24.0892 -10.1191
LeftShoulder1  6.36096 -12.259 -34.3444
LeftArm  10.8791 14.1908 -32.007
LeftForeArm  164.736 -69.5561 -153.301
LeftHand  -0.146045 -2.45861 2.36557
RightShoulder  3.61576 6.25907 31.1426
RightArm  9.26172 -28.1813 36.9604
RightForeArm  154.296 73.774 144.434
RightHand  -0.51897 10.0747 -4.28967
LeftUpLeg  -13.4733 5.51098 7.33121
LeftLeg  19.0721 14.4381 5.79528
LeftFoot  -6.75713 0.500608 -11.4699
LeftToes  1.24773e-006 1.46318e-008 1.32523e-009
128
root  -0.485768 40.0764 -5.78779 -169.016 33.2469 -175.835
RightUpLeg  -13.7829 2.46858 -8.79679
RightLeg  20.1017 -7.8422 -3.33287
RightFoot  -5.16408 -0.485362 8.33535
RightToes  -2.09809e-008 3.77894e-005 6.81332e-007
Spine  0.253477 -1.11687 -8.23977
Spine1  5.43654 -3.62089 11.1342
HEad  -23.946 23.3905 -9.19817
LeftShoulder1  6.3323 -12.2407 -34.211
LeftArm  11.4363 14.4669 -31.4209
LeftForeArm  163.893 -70.123 -152.403
LeftHand  -0.179459 -2.37864 2.88453
RightShoulder  3.58115 6.20574 30.988
RightArm  10.0406 -27.3585 36.001
RightForeArm  153.962 73.9333 144.018
RightHand  -0.601512 9.5252 -5.06464
LeftUpLeg  -13.3307 4.89433 7.09847
LeftLeg  19.1081 15.1404 6.07223
LeftFoot  -6.87601 0.488221 -11.4424
LeftToes  1.24773e-006 1.46318e-008 1.32523e-009
129
root  -0.449684 39.9178 -5.28795 -169.991 33.6552 -176.683
RightUpLeg  -12.0551 3.1911 -10.2237
RightLeg  24.5542 -6.75646 -3.55596
RightFoot  -5.47263 -0.497674 8.90995
RightToes  -2.09809e-008 3.77894e-005 6.81332e-007
Spine  -0.850124 -0.610373 -7.42733
Spine1  5.85943 -2.82287 9.71064
HEad  -21.5631 22.8091 -8.75614
LeftShoulder1  6.36946 -12.2599 -34.3948
LeftArm  11.0903 15.5562 -30.7821
LeftForeArm  164.239 -69.9591 -152.68
LeftHand  -0.172652 -2.43914 2.76595
RightShoulder  3.54316 6.18178 30.6824
RightArm  10.6515 -26.5261 35.4379
RightForeArm  154.062 74.1476 143.544
RightHand  -0.633613 9.13758 -5.43852
LeftUpLeg  -13.2877 3.83499 6.77648
LeftLeg  19.2156 16.2568 6.5274
LeftFoot  -7.25696 0.460949 -11.6828
LeftToes  1.24773e-006 1.46318e-008 1.32523e-009
130
root  -0.282556 39.7532 -4.68415 -170.857 33.8532 -177.81
RightUpLeg  -9.63598 4.21224 -11.7278
RightLeg  25.1909 -3.29673 -1.90547
RightFoot  -6.07238 -0.627548 12.6667
RightToes  -2.09809e-008 3.77894e-005 6.81332e-007
Spine  -1.89998 -0.228555 -7.04566
Spine1  6.02179 -2.18125 8.56755
HEad  -19.5205 22.3126 -9.10674
LeftShoulder1  6.44755 -12.3016 -34.7774
LeftArm  9.83987 17.186 -30.2941
LeftForeArm  164.829 -69.5822 -153.278
LeftHand  -0.15355 -2.47187 2.47325
RightShoulder  3.51616 6.19645 30.3436
RightArm  10.9706 -25.6617 35.2238
RightForeArm  153.757 74.2145 143.333
RightHand  -0.649362 8.99687 -5.61288
LeftUpLeg  -13.666 2.20771 6.53255
LeftLeg  19.5148 17.6516 7.15962
LeftFoot  -7.07223 0.491659 -12.0273
LeftToes  1.24773e-006 1.46318e-008 1.32523e-009
131
root  0.0284803 39.5699 -3.94665 -171.253 33.7284 -179.181
RightUpLeg  -7.07228 4.5689 -12.8688
RightLeg  21.6524 -0.343545 -0.362452
RightFoot  -9.29574 -0.345469 15.7
RightToes  -2.09809e-008 3.77894e-005 6.81332e-007
Spine  -2.57325 0.169421 -6.80376
Spine1  5.29566 -1.37329 7.08223
HEad  -17.9041 21.631 -9.92322
LeftShoulder1  6.46798 -12.3144 -34.872
LeftArm  8.37061 18.896 -29.9676
LeftForeArm  165.065 -69.4186 -153.528
LeftHand  -0.170399 -2.28343 2.77545
RightShoulder  3.49572 6.16501 30.2485
RightArm  11.2687 -25.2548 35.508
RightForeArm  153.425 74.1344 143.462
RightHand  -0.631916 8.67803 -5.58325
LeftUpLeg  -14.859 0.105513 6.47142
LeftLeg  19.8079 19.2783 7.90318
LeftFoot  -6.39731 0.591401 -12.7726
LeftToes  1.24773e-006 1.46318e-008 1.32523e-009
132
root  0.430333 39.3967 -3.08316 -170.692 33.281 179.885
RightUpLeg  -5.70432 3.04457 -12.5145
RightLeg  16.5663 0.210259 -0.268995
RightFoot  -12.6316 0.0714553 14.0796
RightToes  -2.09809e-008 3.77894e-005 6.81332e-007
Spine  -3.09339 0.650249 -6.01068
Spine1  4.16956 -0.40226 5.33653
HEad  -17.6262 20.7474 -11.2647
LeftShoulder1  6.55101 -12.4033 -35.1603
LeftArm  6.49898 20.1225 -29.1917
LeftForeArm  165.022 -69.2916 -153.691
LeftHand  -0.205933 -2.05552 3.39754
RightShoulder  3.48373 6.1056 30.3493
RightArm  11.8609 -24.2528 36.2707
RightForeArm  152.553 74.327 142.85
RightHand  -0.630118 8.4972 -5.63294
LeftUpLeg  -16.9527 -0.690416 7.08005
LeftLeg  19.8402 19.4886 8.00129
LeftFoot  -5.60701 0.716356 -13.5814
LeftToes  1.24773e-006 1.46318e-008 1.32523e-009
133
root  0.799142 39.3305 -2.16283 -169.138 32.2953 -179.791
RightUpLeg  -5.78404 -0.926471 -9.88946
RightLeg  12.6149 0.0566701 -1.29245
RightFoot  -13.3705 0.0955966 10.3567
RightToes  -2.09809e-008 3.77894e-005 6.81332e-007
Spine  -3.16067 1.02758 -3.39813
Spine1  3.08636 0.437035 3.08927
HEad  -19.3142 19.9242 -13.1192
LeftShoulder1  6.65136 -12.4739 -35.597
LeftArm  3.85573 20.8778 -28.6819
LeftForeArm  164.831 -69.4412 -153.468
LeftHand  -0.211046 -2.0225 3.49101
RightShoulder  3.53024 6.15639 30.6449
RightArm  13.1293 -21.479 36.9667
RightForeArm  150.521 75.1156 140.463
RightHand  -0.695601 8.62033 -6.1275
LeftUpLeg  -19.2868 0.524118 8.70111
LeftLeg  18.8974 17.6849 6.99939
LeftFoot  -4.17606 0.883678 -13.6615
LeftToes  1.24773e-006 1.46318e-008 1.32523e-009
